# xmcd
#
# Track frame offsets:
#	150
#	29322
#	48968
#	67740
#	89271
#	102366
#	127578
#	143660
#	158914
#	180045
#	192397
#	220879
#	239320
#	255369
#
# Disc length: 3747 seconds
#
# Revision: 0
# Processed by: cddbd v1.5.2PL0 Copyright (c) Steve Scherf et al.
# Submitted via: EZCDAudioConverter 1.2.5.1
#
DISCID=a90ea10e
DTITLE=Alan Jackson - The Bluegrass Album
DYEAR=2013
DGENRE=Country
TTITLE0=Long Hard Road
TTITLE1=Mary
TTITLE2=Wild and Blue
TTITLE3=Appalachian Mountain Girl
TTITLE4=Ain't Got Trouble Now
TTITLE5=Blue Ridge Mountain Song
TTITLE6=Tie Me Down
TTITLE7=There is a Time
TTITLE8=Blue Side of Heaven
TTITLE9=Let's Get Back to Me and You
TTITLE10=Way Beyond Blue
TTITLE11=Knew All Along
TTITLE12=Blacktop
TTITLE13=Blue Moon of Kentucky
EXTD=
EXTT0=
EXTT1=
EXTT2=
EXTT3=
EXTT4=
EXTT5=
EXTT6=
EXTT7=
EXTT8=
EXTT9=
EXTT10=
EXTT11=
EXTT12=
EXTT13=
PLAYORDER=
